# xmcd CD database file
#
# Track frame offsets:
#	150
#	19482
#	41879
#	69759
#	86666
#	110044
#	126440
#	145415
#	166930
#	179937
#	198707
#	224809
#	257397
#	267724
#	280911
#	303239
#	327596
#	341497
#
# Disc length: 4787 seconds
#
# Revision: 0
# Processed by: cddbd v1.5.2PL0 Copyright (c) Steve Scherf et al.
# Submitted via: CDex 1.70beta2
#
DISCID=2f12b112
DTITLE=Amazing Women Voice - Amazing Women Voice [Disc 2]
DYEAR=2004
DGENRE=New Age
TTITLE0=May It Be
TTITLE1=The Sound Of Silence
TTITLE2=This Love
TTITLE3=Travel Together
TTITLE4=Deramland
TTITLE5=Only time
TTITLE6=Romeo And Juliette
TTITLE7=A But Against Me
TTITLE8=La Luna
TTITLE9=From Mr First Moment
TTITLE10=Way Down Deep
TTITLE11=The Eyes Of Turth
TTITLE12=Si Do Mbaimeo
TTITLE13=One I Love
TTITLE14=Waves
TTITLE15=My Heart Will Goon
TTITLE16=I'm A Doun
TTITLE17=One By One
EXTD=YEAR: 2004
EXTT0=
EXTT1=
EXTT2=
EXTT3=
EXTT4=
EXTT5=
EXTT6=
EXTT7=
EXTT8=
EXTT9=
EXTT10=
EXTT11=
EXTT12=
EXTT13=
EXTT14=
EXTT15=
EXTT16=
EXTT17=
PLAYORDER=
